<svg version="1.0" xmlns="http://www.w3.org/2000/svg"
 width="198.000000pt" height="50.000000pt" viewBox="0 0 198.000000 50.000000"
 preserveAspectRatio="xMidYMid meet">

<g transform="translate(0.000000,50.000000) scale(0.100000,-0.100000)"
fill="#000000" stroke="none">
<path d="M120 422 l-85 -47 -3 -103 -3 -102 44 -28 c24 -15 64 -38 89 -51 l45
-24 84 49 84 50 3 97 c3 112 6 106 -105 168 l-69 38 -84 -47z m160 -30 l65
-37 3 -85 3 -85 -73 -42 -73 -42 -70 39 -70 39 -3 85 -3 86 63 40 c35 22 70
40 78 40 8 0 44 -17 80 -38z"/>
<path d="M152 371 l-44 -28 45 -27 c25 -14 48 -26 52 -26 4 0 27 12 51 26 l46
27 -49 28 c-26 16 -50 28 -53 28 -3 0 -25 -13 -48 -28z"/>
<path d="M90 256 c0 -54 0 -54 46 -80 26 -14 48 -26 50 -26 2 0 4 24 4 54 0
53 -1 54 -44 80 -25 14 -47 26 -50 26 -3 0 -6 -24 -6 -54z"/>
<path d="M263 284 c-42 -25 -43 -26 -43 -80 0 -30 2 -54 5 -54 2 0 25 12 50
27 44 27 45 29 45 80 0 29 -3 53 -7 53 -5 0 -27 -12 -50 -26z"/>
<path d="M557 434 c-4 -4 -7 -22 -7 -40 0 -28 -4 -33 -27 -36 -41 -4 -43 -36
-4 -44 l30 -6 3 -102 c2 -82 6 -101 18 -101 12 0 16 19 18 103 3 98 4 102 25
102 31 0 51 15 44 34 -4 10 -18 16 -36 16 -27 0 -30 3 -33 37 -3 35 -17 51
-31 37z"/>
<path d="M1157 434 c-9 -9 -9 -296 -1 -318 9 -23 33 -19 39 7 3 12 4 87 3 167
-3 121 -6 145 -18 148 -9 1 -19 0 -23 -4z"/>
<path d="M1237 434 c-11 -11 -8 -220 4 -251 34 -90 141 -109 199 -35 22 27 26
87 9 125 -21 46 -107 74 -149 47 -13 -8 -16 1 -20 53 -4 45 -9 63 -20 65 -9 1
-19 0 -23 -4z m158 -169 c47 -46 19 -115 -47 -115 -42 0 -68 25 -68 67 0 67
68 96 115 48z"/>
<path d="M674 296 c-29 -29 -34 -41 -34 -79 0 -105 121 -155 193 -79 72 76 23
192 -83 192 -34 0 -48 -6 -76 -34z m126 -28 c24 -26 26 -75 3 -100 -25 -28
-77 -24 -102 8 -27 35 -26 59 4 89 30 31 68 32 95 3z"/>
<path d="M938 310 c-56 -44 -61 -125 -9 -174 77 -73 191 -20 191 90 0 28 -8
44 -34 70 -29 29 -41 34 -79 34 -29 0 -53 -7 -69 -20z m117 -45 c30 -30 31
-54 4 -89 -41 -52 -119 -25 -119 41 0 67 68 96 115 48z"/>
<path d="M1544 319 c-31 -16 -54 -62 -54 -109 0 -67 69 -122 133 -106 133 33
111 228 -25 225 -18 0 -42 -5 -54 -10z m100 -50 c41 -33 34 -89 -15 -115 -26
-13 -32 -13 -58 0 -31 16 -41 34 -41 71 0 26 42 65 70 65 10 0 29 -9 44 -21z"/>
<path d="M1733 314 c-4 -10 9 -30 36 -58 l41 -42 -40 -39 c-22 -21 -40 -45
-40 -51 0 -30 25 -23 66 17 l44 43 43 -42 c23 -23 48 -42 55 -42 23 0 12 37
-23 70 -19 19 -35 39 -35 45 0 6 16 26 35 45 35 33 46 70 23 70 -7 0 -32 -19
-55 -42 l-43 -42 -43 42 c-47 46 -55 49 -64 26z"/>
</g>
</svg>
